<svg id="title" xmlns="http://www.w3.org/2000/svg" viewBox="0 0 1066.67 186.02">
  <path d="M74.46,104.91c7.4,0,12.1-2.3,17.4-6.6l1.6,1.7c-6.5,6.4-13.4,8.7-22.3,8.7-18.3,0-31.6-13.3-31.6-35.9s13.3-36,31.8-36c9.3,0,15.4,2.6,21.2,8.8l-1.6,1.6c-5.5-4.7-10.3-6.6-16.8-6.6-14.4,0-24.9,11.7-24.9,32.1s10.5,32.2,25.2,32.2Z"/>
  <path d="M103.96,32.71h8.6v75h-8.6V32.71Z"/>
  <path d="M128.16,67.81l-1.5-1.8c3.9-3.8,9.1-7.2,17.1-7.2,10.4,0,19.9,5.3,19.9,20.4v28.9h-6.6l-1.9-8.3c-2.5,5.4-7.6,8.9-16.1,8.9-10.4,0-15.9-5.2-15.9-13.1,0-8.8,6.8-14.6,22.7-14.6h9.3v-2.5c0-13.8-7-16.7-13.3-16.7s-10.5,2.8-13.7,6ZM155.16,83.51h-9.3c-8.6,0-13.8,4-13.8,12.1,0,7.3,4.5,9.9,9.3,9.9,5.3,0,13.4-3.2,13.8-15.1v-6.9Z"/>
  <path d="M185.86,73.21c2-8.4,6.3-14.4,13.1-14.4,5,0,8.6,2.7,8.6,8.2v3.3l-7.8,3.8v-7c0-3.6-1.1-5.2-2.8-5.2-4.1,0-10.8,6.7-11.1,25.5v20.3h-8.6v-47.8h8.6v13.3Z"/>
  <path d="M254.46,81.41v2.4h-33.5c0,14.7,5.9,21.4,15.3,21.4,6.8,0,12-2.9,15.5-6.2l1.7,1.4c-3.4,3.8-8.5,8.3-18.5,8.3-12.9,0-22.8-7.1-22.8-24.9s8.9-25,21.9-25,20.4,7.3,20.4,22.6ZM221.06,81.11h24.7c-.1-11.5-3.7-19.7-11.7-19.7s-12.5,6.8-13,19.7Z"/>
  <path d="M296.05,52.41c0,16.5,32.4,12.5,32.4,37.4,0,12.1-9.7,18.9-20.8,18.9s-17.9-5.8-22.2-10.5l1.6-1.7c4,4.1,11.1,8.5,19.2,8.5,8.8,0,14.6-5.3,14.6-12.9,0-19.6-32.6-16.3-32.6-37.7,0-10.9,7.6-17.6,20.4-17.6,8.4,0,13.5,4,17.6,8.3l-1.7,1.6c-4.2-4.1-9.2-6.4-15.4-6.4-7.8,0-13.1,4.5-13.1,12.1Z"/>
  <path d="M372.45,107.71v-30.6c0-10.5-3.7-15.2-10-15.2s-13.1,5.3-13.4,18.2v27.6h-8.6V32.71h8.6v37.4c1.9-6.5,7-11.3,15.4-11.3,9.7,0,16.6,5.7,16.6,17.4v31.5h-8.6Z"/>
  <path d="M435.25,81.41v2.4h-33.5c0,14.7,5.9,21.4,15.3,21.4,6.8,0,12-2.9,15.5-6.2l1.7,1.4c-3.4,3.8-8.5,8.3-18.5,8.3-12.9,0-22.8-7.1-22.8-24.9s8.9-25,21.9-25,20.4,7.3,20.4,22.6ZM401.85,81.11h24.7c-.1-11.5-3.7-19.7-11.7-19.7s-12.5,6.8-13,19.7Z"/>
  <path d="M447.45,32.71h8.6v75h-8.6V32.71Z"/>
  <path d="M505.65,107.71l-.9-10c-2.6,8-7.9,11.1-15.7,11.1-12.7,0-20.6-8.1-20.6-25s7.9-25,20.6-25c7.4,0,12.6,2.8,15.3,9.9v-36h8.7v75h-7.4ZM477.45,83.81c0,14.9,4.7,21.9,13.4,21.9s13.5-7.1,13.5-21.9-4.6-21.9-13.5-21.9-13.4,7-13.4,21.9Z"/>
  <path d="M548.15,108.71c-14.1,0-22.9-9.4-22.9-25.4s9-24.5,22.9-24.5,22.9,8.5,22.9,24.5-8.7,25.4-22.9,25.4ZM548.15,105.91c9,0,14.2-8.2,14.2-22.6s-5.2-21.7-14.2-21.7-14.2,7.3-14.2,21.7,5.3,22.6,14.2,22.6Z"/>
  <path d="M591.95,70.41c1.8-6.7,7-11.6,15.4-11.6,9.7,0,16.6,5.7,16.6,17.4v31.5h-8.6v-30.6c0-10.5-3.7-15.2-10-15.2s-13.1,5.3-13.4,18.2v27.6h-8.6v-47.8h8.6v10.5Z"/>
  <path d="M637.74,81.31v-3.2h30.3v3.2h-30.3Z"/>
  <path d="M723.45,37.71l15.2,63.5,15.8-63.5h4.2l-17.6,70h-9.3l-15.3-62.7-15.6,62.7h-9.3l-17.3-70h9.7l14.7,63.5,15.5-63.5h9.3Z"/>
  <path d="M773.54,38.61c3.1,0,5.3,2.1,5.3,5.3,0,3-2.2,5.1-5.3,5.1s-5.4-2.1-5.4-5.1c0-3.2,2.3-5.3,5.4-5.3ZM768.94,59.91h8.6v47.8h-8.6v-47.8Z"/>
  <path d="M792.94,32.71h8.6v75h-8.6V32.71Z"/>
  <path d="M817.54,32.71h8.6v75h-8.6V32.71Z"/>
  <path d="M845.64,38.61c3.1,0,5.3,2.1,5.3,5.3,0,3-2.2,5.1-5.3,5.1s-5.4-2.1-5.4-5.1c0-3.2,2.3-5.3,5.4-5.3ZM841.04,59.91h8.6v47.8h-8.6v-47.8Z"/>
  <path d="M866.74,67.81l-1.5-1.8c3.9-3.8,9.1-7.2,17.1-7.2,10.4,0,19.9,5.3,19.9,20.4v28.9h-6.6l-1.9-8.3c-2.5,5.4-7.6,8.9-16.1,8.9-10.4,0-15.9-5.2-15.9-13.1,0-8.8,6.8-14.6,22.7-14.6h9.3v-2.5c0-13.8-7-16.7-13.3-16.7s-10.5,2.8-13.7,6ZM893.74,83.51h-9.3c-8.6,0-13.8,4-13.8,12.1,0,7.3,4.5,9.9,9.3,9.9,5.3,0,13.4-3.2,13.8-15.1v-6.9Z"/>
  <path d="M972.94,107.71v-32.3c0-9.2-3.5-13.5-9.1-13.5-5.1,0-10.6,3.4-10.8,15.6v30.2h-8.6v-32.6c0-8.3-3.3-13.2-9-13.2-5.4,0-10.8,5.1-11,16.8v29h-8.6v-47.8h8.6v8.8c1.5-5.7,6.5-9.9,13.6-9.9,5.4,0,11.8,2.6,14.1,9.6,1.7-5.5,6.4-9.6,13.9-9.6s15.6,3.9,15.6,16.5v32.4h-8.7Z"/>
  <path d="M1023.94,64.21l-1.6,1.8c-3-2.3-6.9-4.1-12-4.1-6.4,0-9.9,2.9-9.9,7,0,11.4,26,6.7,26,24.9,0,8.6-5.5,14.9-16.8,14.9-7,0-12.6-2.3-17.6-6.7l1.6-1.7c4.2,3.5,9.5,5.2,15.2,5.2,6.4,0,11.3-3.1,11.3-8.9,0-13.8-26.1-8.2-26.1-25.3,0-9,7.5-12.5,15.7-12.5,6.5,0,10.7,2.2,14.2,5.4Z"/>
  <path d="M400.5,147.64c-.48.75-.93.99-.93.99,0,0-1.5-1.47-4.53-1.47-3.93,0-5.64,3.15-5.64,7.02s2.01,7.05,5.61,7.05c1.83,0,2.97-.6,3.6-1.05.45-.3.93-.54,1.35.21l.78,1.38c.27.45.48.84-.06,1.29-.78.63-2.7,1.65-5.76,1.65-6.45,0-9.63-4.5-9.6-10.5.03-5.97,3.12-10.5,9.51-10.5,3.24,0,4.92.99,5.49,1.41.51.36,1.14,1.14.18,2.52Z"/>
  <path d="M416.73,156.85l2.94,3.84c.51.78,1.05.81,1.83.81.57,2.4-.48,3.21-2.16,3.21s-2.37-.87-3.06-2.01l-3.39-5.16h-3.36c-.03.75-.09,4.32,0,5.16.09,1.29-.24,1.71-1.26,1.71h-1.5c-1.38,0-1.41-1.23-1.38-2.16.06-2.37.09-15.12.06-15.84,0-1.02-.27-2.4,1.56-2.4h6.18c5.1,0,7.8,2.82,7.74,6.87,0,3-1.86,5.04-4.2,5.97ZM412.98,146.98h-3.54c-.06,1.71,0,6.6,0,7.77h3.51c2.34,0,3.93-1.35,3.93-3.87,0-1.89-1.08-3.9-3.9-3.9Z"/>
  <path d="M427.11,144.01h10.77c1.05,0,1.23.51,1.23,1.29v1.05c0,.84-.42,1.17-1.29,1.14h-7.89l-.03,5.22c2.22,0,6.06,0,6.78-.03.54-.03,1.02.24,1.02.96v1.2c0,.78-.24.93-.93.93-.87,0-4.59-.03-6.87,0,0,1.95.03,3.6.06,5.16,2.28,0,6.99-.03,7.89-.09.87-.06,1.26.36,1.26,1.2v1.41c0,.78-.18.96-1.23.96h-10.65c-1.38,0-1.41-1.23-1.38-2.16.06-2.37-.06-15.12-.06-15.81-.03-1.02-.51-2.43,1.32-2.43Z"/>
  <path d="M450,144.01h2.7c1.29,0,1.77.69,2.07,1.71.24,1.02,4.83,15.39,5.22,16.98.24,1.02.12,1.71-.96,1.71h-1.23c-1.41,0-1.47-.99-1.68-1.5-.18-.45-.51-1.71-1.11-3.18h-7.56c-.54,1.56-.96,2.73-1.05,3.09-.21,1.05-.48,1.59-1.53,1.59h-1.71c-.81,0-1.11-.72-.84-1.62.72-2.46,5.34-16.02,5.64-17.1.27-.99.63-1.68,2.04-1.68ZM448.14,156.85h6.18c-1.23-3.99-2.67-8.67-3-9.99h-.18c-.33,1.44-1.77,6.09-3,9.99Z"/>
  <path d="M476.61,145.27l-.03,1.29c-.03.78-.15.96-1.2.96l-4.89.03c-.15,4.14-.06,13.83-.06,14.43,0,1.02.54,2.43-1.29,2.43h-1.53c-1.38,0-1.44-1.2-1.41-2.13.06-.9.18-11.34.15-14.76-.9,0-4.38-.03-4.8,0-.87.09-1.14-.33-1.14-1.17l.03-1.38c0-.78.15-.96,1.2-.96,0,0,12.18.12,13.89-.03.87-.06,1.11.48,1.08,1.29Z"/>
  <path d="M481.68,144.01h1.53c1.38,0,1.41,1.2,1.38,2.13-.09,2.85-.06,14.34,0,15.84.09,1.02.57,2.43-1.26,2.43h-1.5c-1.41,0-1.44-1.23-1.41-2.16.09-2.37-.06-13.17-.06-15.81,0-1.02-.51-2.43,1.32-2.43Z"/>
  <path d="M498.69,164.41h-2.7c-1.29,0-1.83-.69-2.1-1.71s-4.56-15.39-4.98-16.98c-.24-1.02-.15-1.71.96-1.71h1.23c1.41,0,1.5.99,1.65,1.5.36,1.26,4.08,13.74,4.59,16.05h.21c.54-2.52,4.29-15.09,4.53-15.96.27-1.05.3-1.59,1.56-1.59h1.65c.84,0,1.14.72.87,1.62-.72,2.46-5.07,16.02-5.4,17.1-.27.99-.66,1.68-2.07,1.68Z"/>
  <path d="M511.38,144.01h10.77c1.05,0,1.23.51,1.23,1.29v1.05c0,.84-.42,1.17-1.29,1.14h-7.89l-.03,5.22c2.22,0,6.06,0,6.78-.03.54-.03,1.02.24,1.02.96v1.2c0,.78-.24.93-.93.93-.87,0-4.59-.03-6.87,0,0,1.95.03,3.6.06,5.16,2.28,0,6.99-.03,7.89-.09.87-.06,1.26.36,1.26,1.2v1.41c0,.78-.18.96-1.23.96h-10.65c-1.38,0-1.41-1.23-1.38-2.16.06-2.37-.06-15.12-.06-15.81-.03-1.02-.51-2.43,1.32-2.43Z"/>
  <path d="M543.72,164.41h-5.16c-1.41,0-1.44-1.23-1.41-2.16.09-2.37.03-15.12.03-15.81-.03-1.02-.48-2.43,1.35-2.43h5.13c7.56,0,10.56,4.26,10.44,10.2-.12,5.91-2.79,10.2-10.38,10.2ZM543.63,147.13h-2.34c-.09,3.15-.06,10.29-.06,14.16h2.4c5.55,0,6.36-3.54,6.33-7.17-.03-3.66-1.08-6.99-6.33-6.99Z"/>
  <path d="M560.1,144.01h1.53c1.38,0,1.41,1.2,1.38,2.13-.09,2.85-.06,14.34,0,15.84.09,1.02.57,2.43-1.26,2.43h-1.5c-1.41,0-1.44-1.23-1.41-2.16.09-2.37-.06-13.17-.06-15.81,0-1.02-.51-2.43,1.32-2.43Z"/>
  <path d="M580.02,156.85l2.94,3.84c.51.78,1.05.81,1.83.81.57,2.4-.48,3.21-2.16,3.21s-2.37-.87-3.06-2.01l-3.39-5.16h-3.36c-.03.75-.09,4.32,0,5.16.09,1.29-.24,1.71-1.26,1.71h-1.5c-1.38,0-1.41-1.23-1.38-2.16.06-2.37.09-15.12.06-15.84,0-1.02-.27-2.4,1.56-2.4h6.18c5.1,0,7.8,2.82,7.74,6.87,0,3-1.86,5.04-4.2,5.97ZM576.27,146.98h-3.54c-.06,1.71,0,6.6,0,7.77h3.51c2.34,0,3.93-1.35,3.93-3.87,0-1.89-1.08-3.9-3.9-3.9Z"/>
  <path d="M590.4,144.01h10.77c1.05,0,1.23.51,1.23,1.29v1.05c0,.84-.42,1.17-1.29,1.14h-7.89l-.03,5.22c2.22,0,6.06,0,6.78-.03.54-.03,1.02.24,1.02.96v1.2c0,.78-.24.93-.93.93-.87,0-4.59-.03-6.87,0,0,1.95.03,3.6.06,5.16,2.28,0,6.99-.03,7.89-.09.87-.06,1.26.36,1.26,1.2v1.41c0,.78-.18.96-1.23.96h-10.65c-1.38,0-1.41-1.23-1.38-2.16.06-2.37-.06-15.12-.06-15.81-.03-1.02-.51-2.43,1.32-2.43Z"/>
  <path d="M621,147.64c-.48.75-.93.99-.93.99,0,0-1.5-1.47-4.53-1.47-3.93,0-5.64,3.15-5.64,7.02s2.01,7.05,5.61,7.05c1.83,0,2.97-.6,3.6-1.05.45-.3.93-.54,1.35.21l.78,1.38c.27.45.48.84-.06,1.29-.78.63-2.7,1.65-5.76,1.65-6.45,0-9.63-4.5-9.6-10.5.03-5.97,3.12-10.5,9.51-10.5,3.24,0,4.92.99,5.49,1.41.51.36,1.14,1.14.18,2.52Z"/>
  <path d="M640.23,145.27l-.03,1.29c-.03.78-.15.96-1.2.96l-4.89.03c-.15,4.14-.06,13.83-.06,14.43,0,1.02.54,2.43-1.29,2.43h-1.53c-1.38,0-1.44-1.2-1.41-2.13.06-.9.18-11.34.15-14.76-.9,0-4.38-.03-4.8,0-.87.09-1.14-.33-1.14-1.17l.03-1.38c0-.78.15-.96,1.2-.96,0,0,12.18.12,13.89-.03.87-.06,1.11.48,1.08,1.29Z"/>
  <path d="M650.97,164.71c-6.24,0-9.24-4.5-9.21-10.5.03-5.91,2.94-10.5,9.18-10.5,5.91,0,9.18,4.56,9.18,10.5-.06,5.97-3.21,10.5-9.15,10.5ZM650.94,147.13c-3.81,0-5.04,3.27-5.04,7.05.03,3.72,1.23,7.11,5.04,7.11s4.98-3.45,4.98-7.11-1.26-7.05-4.98-7.05Z"/>
  <path d="M675.75,156.85l2.94,3.84c.51.78,1.05.81,1.83.81.57,2.4-.48,3.21-2.16,3.21s-2.37-.87-3.06-2.01l-3.39-5.16h-3.36c-.03.75-.09,4.32,0,5.16.09,1.29-.24,1.71-1.26,1.71h-1.5c-1.38,0-1.41-1.23-1.38-2.16.06-2.37.09-15.12.06-15.84,0-1.02-.27-2.4,1.56-2.4h6.18c5.1,0,7.8,2.82,7.74,6.87,0,3-1.86,5.04-4.2,5.97ZM672,146.98h-3.54c-.06,1.71,0,6.6,0,7.77h3.51c2.34,0,3.93-1.35,3.93-3.87,0-1.89-1.08-3.9-3.9-3.9Z"/>
</svg>
