<svg id="title" xmlns="http://www.w3.org/2000/svg" viewBox="0 0 342.8 56.6"><path d="M102.9 45.2v6.8h-1.8l-0.4-1.5c-0.6 1.2-2 1.8-3.5 1.8 -3.3 0-5.7-2.2-5.7-6.6 0-4.3 2.4-6.7 6.2-6.7 2.5 0 4.3 1.1 5.1 3.2l-2.5 1.2c-0.4-1.4-1.4-2.1-2.7-2.1 -1.7 0-3.4 1.2-3.4 4.5 0 2.5 1 4.5 3.3 4.5 1.7 0 2.8-0.8 2.8-2.1v-0.6h-2.9V45.2H102.9z"/><path d="M112.1 44.6c-0.3-0.1-0.6-0.1-1-0.1 -1.2 0-2.7 0.7-2.7 2.8v4.8h-2.6V41.9h2.3l0.3 2.8c0.4-1.8 1.5-3.1 4-3L112.1 44.6z"/><path d="M121.5 49.2c0 0.7 0.3 0.9 0.7 0.9 0.2 0 0.4-0.1 0.6-0.1v1.9c-0.4 0.2-0.8 0.3-1.5 0.3 -1.2 0-2-0.5-2.3-1.6 -0.5 1.2-1.6 1.7-2.9 1.7 -1.8 0-3-1-3-2.7 0-2.2 1.8-3.5 5.7-3.3v-1.1c0-1-0.5-1.5-1.4-1.5 -0.9 0-1.4 0.6-1.5 1.5l-2.5-0.5c0.2-2.1 2-3 4.2-3 2.3 0 3.8 1 3.8 3.3V49.2zM118.9 47.7c-2.3-0.1-3.1 0.5-3.1 1.5 0 0.7 0.5 1.2 1.3 1.2 0.9 0 1.9-0.5 1.9-1.5V47.7z"/><path d="M127.5 56.4h-2.6V41.9h2.2l0.3 1.9c0.6-1.6 2-2.2 3.3-2.2 2.5 0 3.9 1.8 3.9 5 0 3.2-1.6 5.5-4.3 5.5 -1.5 0-2.5-0.7-2.8-1.6V56.4zM127.5 47.9c0 1.8 1.1 2.4 2.1 2.4 1.3 0 2.4-1.1 2.4-3.4 0-2.2-0.9-3.2-2.2-3.2 -1.2 0-2.3 0.9-2.3 2.6V47.9z"/><path d="M139.5 43.8c0.5-1.5 1.6-2.2 3.1-2.2 1.6 0 3 0.9 3 3.2v7.2h-2.6v-6.2c0-1.2-0.4-1.9-1.5-1.9 -1 0-2 0.6-2 2.5v5.6h-2.6V37.4h2.6V43.8z"/><path d="M162.7 49.3c-0.4 2-2.1 2.9-4.1 2.9 -2.8 0-4.7-1.9-4.7-5.3 0-3.4 1.9-5.3 4.8-5.3 2.3 0 3.8 1.2 3.9 3.3l-2.2 0.6c-0.2-1.1-0.7-1.8-1.7-1.8 -1.5 0-2.2 1.3-2.2 3.2 0 2 0.9 3.3 2.3 3.3 0.9 0 1.5-0.4 1.8-1.6L162.7 49.3z"/><path d="M169.7 52V39.1h4.5c3.6 0 6.2 1.8 6.2 6.3 0 4.8-2.8 6.6-6.4 6.6H169.7zM173.8 49.8c2.4 0 3.9-1.1 3.9-4.2 0-3.2-1.5-4.2-3.7-4.2h-1.6v8.4H173.8z"/><path d="M189.1 48.8l2.2 0.7c-0.5 2-2.3 2.8-4.2 2.8 -2.8 0-4.7-1.9-4.7-5.2 0-3.4 1.9-5.4 4.8-5.4 2.8 0 4.2 1.9 4.2 4.4 0 0.5 0 1-0.1 1.4h-6.3c0.1 1.7 0.9 2.8 2.3 2.8C188 50.2 188.7 49.9 189.1 48.8zM188.8 45.9c0-0.1 0-0.2 0-0.4 0-1.1-0.6-1.9-1.8-1.9 -1.2 0-2 0.9-2.1 2.3H188.8z"/><path d="M194.9 48.9c0.2 1.1 1 1.6 2 1.6 0.9 0 1.6-0.3 1.6-1 0-0.6-0.4-1-1.4-1.2l-1.5-0.3c-1.8-0.4-2.6-1.4-2.6-2.9 0-2.4 2-3.2 4-3.2 2.3 0 3.7 0.8 3.9 2.8l-2.5 0.4c-0.1-0.9-0.6-1.2-1.5-1.2 -0.8 0-1.3 0.4-1.3 1 0 0.6 0.3 0.9 1.1 1.1l1.4 0.3c2 0.4 2.9 1.4 2.9 3.2 0 2.2-1.8 3.1-4.2 3.1 -2.4 0-3.8-0.7-4.2-2.6L194.9 48.9z"/><path d="M216.2 42.4c0.5-0.4 0.6-0.7 0.8-1.5l2.1 0.7c-0.1 1-0.9 1.6-1.8 1.9 0.3 0.5 0.5 1.1 0.5 1.8 0 2.3-2 3.5-4.5 3.5 -0.5 0-1-0.1-1.2-0.1 -0.4 0.2-0.5 0.6-0.5 0.9 0 0.4 0.3 0.7 0.9 0.7h2.7c2.3 0 3.6 1.1 3.6 2.9 0 2.8-2.9 3.5-5.7 3.5 -2.4 0-4.6-0.6-4.6-2.6 0-1.2 0.9-2 2.6-2.1 -1-0.1-1.5-0.8-1.5-1.7 0-0.8 0.5-1.6 1.6-1.9 -1.3-0.5-2-1.5-2-3 0-2.3 1.8-3.6 4.3-3.6C214.4 41.7 215.4 41.9 216.2 42.4zM213.2 54.8c2.1 0 3-0.4 3-1.3 0-0.6-0.4-1-1.4-1h-2.4c-1 0-1.7 0.4-1.7 1.1C210.7 54.5 211.6 54.8 213.2 54.8zM213.3 47c1.1 0 1.8-0.6 1.8-1.7 0-1.2-0.6-1.8-1.8-1.7 -1.1 0-1.7 0.6-1.7 1.8C211.6 46.3 212.1 47 213.3 47z"/><path d="M223.4 43.9c0.6-1.5 1.7-2.2 3.2-2.2 1.6 0 3 0.9 3 3.2v7.2h-2.6v-6.2c0-1.2-0.4-1.9-1.5-1.9 -1 0-2 0.6-2 2.5v5.6h-2.6V41.9h2.2L223.4 43.9z"/><path d="M238.8 48.8l2.2 0.7c-0.5 2-2.3 2.8-4.2 2.8 -2.8 0-4.7-1.9-4.7-5.2 0-3.4 1.9-5.4 4.8-5.4 2.8 0 4.2 1.9 4.2 4.4 0 0.5 0 1-0.1 1.4h-6.3c0.1 1.7 0.9 2.8 2.3 2.8C237.8 50.2 238.5 49.9 238.8 48.8zM238.5 45.9c0-0.1 0-0.2 0-0.4 0-1.1-0.6-1.9-1.8-1.9 -1.2 0-2 0.9-2.1 2.3H238.5z"/><path d="M249.6 44.6c-0.3-0.1-0.6-0.1-1-0.1 -1.2 0-2.7 0.7-2.7 2.8v4.8h-2.6V41.9h2.3l0.3 2.8c0.4-1.8 1.5-3.1 4-3L249.6 44.6z"/><path d="M204.9 37.4c0.7 0 1.3 0.5 1.3 1.2 0 0.8-0.6 1.2-1.3 1.2 -0.7 0-1.3-0.4-1.3-1.2C203.6 37.9 204.2 37.4 204.9 37.4z"/><rect x="203.6" y="41.1" width="2.6" height="10.9"/><path d="M149.9 37.4c0.7 0 1.3 0.5 1.3 1.2 0 0.8-0.6 1.2-1.3 1.2 -0.7 0-1.3-0.4-1.3-1.2C148.7 37.9 149.3 37.4 149.9 37.4z"/><rect x="148.7" y="41.1" width="2.6" height="10.9"/><path d="M17.9 19.2c-1.9 3.1-4.3 4.6-8.6 4.6C3.8 23.7 0 19.9 0 13.1 0 6.2 3.8 2.3 9.9 2.3c4.1 0 6.7 1.8 8.1 5.1l-4 2c-0.7-2.2-2-3.4-4.3-3.4 -3.3 0-5.4 2.7-5.4 7.1 0 4.3 1.8 6.9 5.3 6.9 2.1 0 3.7-0.9 4.7-3L17.9 19.2z"/><path d="M43.4 18.8c0 1.2 0.5 1.5 1.2 1.5 0.4 0 0.7-0.1 1-0.2v3.1c-0.6 0.4-1.4 0.5-2.3 0.5 -2 0-3.2-0.8-3.7-2.5 -0.8 2-2.6 2.7-4.7 2.7 -2.9 0-4.8-1.6-4.8-4.4 0-3.6 2.9-5.6 9.2-5.2v-1.7c0-1.6-0.8-2.4-2.2-2.4 -1.5 0-2.2 0.9-2.3 2.4l-4.1-0.7c0.2-3.4 3.2-4.9 6.6-4.9 3.7 0 6.1 1.6 6.1 5.2V18.8zM39.3 16.4c-3.6-0.1-5 0.8-5 2.4 0 1.1 0.7 1.9 2.1 1.9 1.4 0 3-0.7 3-2.4V16.4z"/><path d="M58.6 11.5c-0.5-0.1-1-0.2-1.7-0.2 -2 0-4.3 1.2-4.3 4.4v7.6h-4.1V7.2h3.6l0.5 4.4c0.7-2.8 2.4-4.9 6.4-4.7L58.6 11.5z"/><path d="M71 18.2l3.6 1.2c-0.8 3.2-3.6 4.4-6.8 4.4 -4.5 0-7.6-3-7.6-8.3 0-5.5 3-8.6 7.7-8.6 4.4 0 6.7 3 6.7 7.1 0 0.8-0.1 1.5-0.2 2.2H64.3c0.1 2.7 1.4 4.5 3.7 4.5C69.4 20.5 70.5 20 71 18.2zM70.6 13.5c0-0.2 0-0.4 0-0.6 0-1.7-1-3-2.9-3 -1.9 0-3.1 1.4-3.4 3.6H70.6z"/><path d="M88.3 17.1c0.4 2.2 2 3.4 4 3.4 1.8 0 3-0.8 3-2.3 0-1.5-0.8-2.2-3.7-3.2 -4.2-1.4-6.4-3-6.4-6.6 0-4.5 3.6-6.1 7-6.1 4.1 0 7.1 1.4 7.5 5.4l-4.2 1c-0.2-1.9-1.6-2.9-3.2-2.9 -1.5 0-2.7 0.8-2.7 2.3 0 1.6 1.3 2.3 3.9 3.1 3.9 1.3 6.2 2.7 6.2 6.6 0 4.3-3.5 6-7.7 6 -4 0-6.7-1.4-7.6-5.1L88.3 17.1z"/><path d="M107.9 10.3c0.8-2.3 2.5-3.4 5-3.4 2.6 0 4.8 1.5 4.8 5.1v11.4h-4.1v-10c0-1.8-0.6-3-2.4-3 -1.7 0-3.2 0.9-3.2 4v9h-4.1V0h4.2V10.3z"/><path d="M131.8 18.2l3.6 1.2c-0.8 3.2-3.6 4.4-6.8 4.4 -4.5 0-7.6-3-7.6-8.3 0-5.5 3-8.6 7.7-8.6 4.4 0 6.7 3 6.7 7.1 0 0.8-0.1 1.5-0.2 2.2h-10.1c0.1 2.7 1.4 4.5 3.7 4.5C130.2 20.5 131.3 20 131.8 18.2zM131.4 13.5c0-0.2 0-0.4 0-0.6 0-1.7-1-3-2.9-3 -1.9 0-3.1 1.4-3.4 3.6H131.4z"/><path d="M159.4 0h4.2v23.3h-3.6l-0.5-2.8c-0.7 2.4-2.7 3.2-5.1 3.2 -3.5 0-6.4-2.8-6.4-8.2 0-5.5 2.6-8.8 7.2-8.8 2.1 0 3.8 1.1 4.3 2.5V0zM159.4 13.5c0-2.5-1.7-3.6-3.4-3.6 -2 0-3.8 1.4-3.8 5.5 0 3.3 1.5 5.1 3.8 5.1 1.6 0 3.5-1.3 3.5-3.8V13.5z"/><path d="M167.1 15.2c0-5.5 3-8.4 7.6-8.4 4.6 0 7.6 2.9 7.6 8.4s-3 8.6-7.6 8.6C170.1 23.7 167.1 20.7 167.1 15.2zM171.2 15.2c0 3.6 1.2 5.3 3.5 5.3 2.4 0 3.6-1.7 3.6-5.3 0-3.4-1.2-5.1-3.6-5.1C172.4 10.2 171.2 11.8 171.2 15.2z"/><path d="M189.9 10.3c0.9-2.4 2.7-3.5 5.2-3.5 2.6 0 4.8 1.5 4.8 5.1v11.4h-4.1v-10c0-1.8-0.6-3-2.4-3 -1.7 0-3.2 0.9-3.2 4v9h-4.1V7.2h3.5L189.9 10.3z"/><path d="M204.8 12.6h8.4v3.5h-8.4V12.6z"/><path d="M234.7 14.6c0.7 3 1.1 5.7 1.1 5.7h0.1c0 0 0.3-2.7 0.9-5.7l2.6-11.9h4.3l-4.8 20.6h-6.1l-2.6-10.8c-0.7-3-0.8-5.6-0.8-5.6h-0.1c0 0-0.1 2.7-0.9 5.7l-2.7 10.8h-6l-4.8-20.5h4.5l2.7 11.8c0.7 3 1 5.8 1 5.8h0.1c0 0 0.3-2.8 1-5.7l2.8-11.8h5L234.7 14.6z"/><path d="M249 0c1.2 0 2.1 0.7 2.1 2 0 1.2-0.9 1.9-2.1 1.9 -1.1 0-2-0.7-2-1.9C247 0.7 247.9 0 249 0z"/><rect x="247" y="5.9" width="4.2" height="17.4"/><path d="M278.7 0c1.2 0 2.1 0.7 2.1 2 0 1.2-0.9 1.9-2.1 1.9 -1.1 0-2-0.7-2-1.9C276.7 0.7 277.6 0 278.7 0z"/><rect x="276.7" y="5.9" width="4.2" height="17.4"/><path d="M298 18.8c0 1.2 0.5 1.5 1.2 1.5 0.4 0 0.7-0.1 1-0.2v3.1c-0.6 0.4-1.4 0.5-2.3 0.5 -2 0-3.2-0.8-3.7-2.5 -0.8 2-2.6 2.7-4.7 2.7 -2.9 0-4.8-1.6-4.8-4.4 0-3.6 2.9-5.6 9.2-5.2v-1.7c0-1.6-0.8-2.4-2.2-2.4 -1.5 0-2.2 0.9-2.3 2.4l-4.1-0.7c0.2-3.4 3.2-4.9 6.6-4.9 3.7 0 6.1 1.6 6.1 5.2V18.8zM293.9 16.4c-3.6-0.1-5 0.8-5 2.4 0 1.1 0.7 1.9 2.1 1.9 1.4 0 3-0.7 3-2.4V16.4z"/><path d="M321.8 6.8c2.7 0 4.7 1.5 4.7 5v11.5h-4.1v-10c0-1.8-0.6-3-2.3-3 -1.6 0-3 1-3 4v9h-4.2v-10c0-1.8-0.6-3-2.3-3 -1.6 0-3 1.1-3 4v9h-4.1V7.2h3.5l0.5 3.1c0.9-2.4 2.7-3.5 5-3.5 2.1 0 3.9 0.9 4.3 3.5C317.5 7.9 319.5 6.8 321.8 6.8z"/><path d="M333 18.3c0.3 1.8 1.6 2.5 3.2 2.5 1.5 0 2.6-0.5 2.6-1.6 0-1-0.6-1.6-2.2-2l-2.4-0.6c-2.9-0.7-4.1-2.3-4.1-4.7 0-3.9 3.2-5.1 6.4-5.1 3.7 0 5.9 1.3 6.2 4.5l-3.9 0.6c-0.1-1.4-0.9-1.9-2.4-1.9 -1.3 0-2.2 0.6-2.2 1.6 0 0.9 0.5 1.5 1.8 1.7l2.3 0.5c3.1 0.7 4.7 2.3 4.7 5.1 0 3.6-2.9 4.9-6.7 4.9 -3.9 0-6.1-1.1-6.7-4.1L333 18.3z"/><path d="M272.9 19.9c-0.4 0.1-0.7 0.1-1 0.1 -0.8-0.1-1.5-0.4-1.5-1.4V0h-4.1v19.7c0 2.8 2 3.9 4.2 3.9 0.8 0 1.5-0.1 2.4-0.4L272.9 19.9z"/><path d="M262.5 19.9c-0.4 0.1-0.7 0.1-1 0.1 -0.8-0.1-1.5-0.4-1.5-1.4V0h-4.1v19.7c0 2.8 2 3.9 4.2 3.9 0.8 0 1.5-0.1 2.4-0.4L262.5 19.9z"/><path d="M145.7 19.9c-0.4 0.1-0.7 0.1-1 0.1 -0.8-0.1-1.5-0.4-1.5-1.4V0h-4.1v19.7c0 2.8 2 3.9 4.2 3.9 0.8 0 1.5-0.1 2.4-0.4L145.7 19.9z"/><path d="M27.4 19.9c-0.4 0.1-0.7 0.1-1 0.1 -0.8-0.1-1.5-0.4-1.5-1.4V0h-4.1v19.7c0 2.8 2 3.9 4.2 3.9 0.8 0 1.5-0.1 2.4-0.4L27.4 19.9z"/></svg>
